<svg xmlns="http://www.w3.org/2000/svg" width="920" height="520"><rect width="920" height="520" fill="#ffffff"/><text x="40" y="48" font-family="Arial" font-size="24" fill="#17202A">Mean Occupancy by Month</text><line x1="150" y1="450" x2="860" y2="450" stroke="#7F8C8D"/><rect x="170" y="163" width="83" height="287" fill="#7D3C98" rx="3"/><text x="170" y="475" font-family="Arial" font-size="11" fill="#17202A">Jan</text><text x="170" y="151" font-family="Arial" font-size="12" fill="#17202A">72.50</text><rect x="273" y="153" width="83" height="297" fill="#7D3C98" rx="3"/><text x="273" y="475" font-family="Arial" font-size="11" fill="#17202A">Mar</text><text x="273" y="141" font-family="Arial" font-size="12" fill="#17202A">75.10</text><rect x="377" y="144" width="83" height="306" fill="#7D3C98" rx="3"/><text x="377" y="475" font-family="Arial" font-size="11" fill="#17202A">May</text><text x="377" y="132" font-family="Arial" font-size="12" fill="#17202A">77.20</text><rect x="480" y="130" width="83" height="320" fill="#7D3C98" rx="3"/><text x="480" y="475" font-family="Arial" font-size="11" fill="#17202A">Jul</text><text x="480" y="118" font-family="Arial" font-size="12" fill="#17202A">80.80</text><rect x="583" y="149" width="83" height="301" fill="#7D3C98" rx="3"/><text x="583" y="475" font-family="Arial" font-size="11" fill="#17202A">Sep</text><text x="583" y="137" font-family="Arial" font-size="12" fill="#17202A">76.00</text><rect x="687" y="166" width="83" height="284" fill="#7D3C98" rx="3"/><text x="687" y="475" font-family="Arial" font-size="11" fill="#17202A">Nov</text><text x="687" y="154" font-family="Arial" font-size="12" fill="#17202A">71.80</text></svg>