<svg xmlns="http://www.w3.org/2000/svg" width="920" height="520"><rect width="920" height="520" fill="#ffffff"/><text x="40" y="48" font-family="Arial" font-size="24" fill="#17202A">Permutation Importance</text><line x1="150" y1="450" x2="860" y2="450" stroke="#7F8C8D"/><rect x="170" y="130" width="83" height="320" fill="#117A65" rx="3"/><text x="170" y="475" font-family="Arial" font-size="11" fill="#17202A">Admissions_Roll</text><text x="170" y="118" font-family="Arial" font-size="12" fill="#17202A">0.10</text><rect x="273" y="170" width="83" height="280" fill="#117A65" rx="3"/><text x="273" y="475" font-family="Arial" font-size="11" fill="#17202A">Staffing_Pressu</text><text x="273" y="158" font-family="Arial" font-size="12" fill="#17202A">0.09</text><rect x="377" y="188" width="83" height="262" fill="#117A65" rx="3"/><text x="377" y="475" font-family="Arial" font-size="11" fill="#17202A">Emergency_Load_</text><text x="377" y="176" font-family="Arial" font-size="12" fill="#17202A">0.09</text><rect x="480" y="210" width="83" height="240" fill="#117A65" rx="3"/><text x="480" y="475" font-family="Arial" font-size="11" fill="#17202A">Admissions</text><text x="480" y="198" font-family="Arial" font-size="12" fill="#17202A">0.08</text><rect x="583" y="262" width="83" height="188" fill="#117A65" rx="3"/><text x="583" y="475" font-family="Arial" font-size="11" fill="#17202A">Nurse_Ratio</text><text x="583" y="250" font-family="Arial" font-size="12" fill="#17202A">0.06</text><rect x="687" y="290" width="83" height="160" fill="#117A65" rx="3"/><text x="687" y="475" font-family="Arial" font-size="11" fill="#17202A">Average_Length_</text><text x="687" y="278" font-family="Arial" font-size="12" fill="#17202A">0.05</text></svg>